<svg xmlns="http://www.w3.org/2000/svg" viewBox="0 0 64 64" role="img" aria-label="Palm tree icon">
  <defs>
    <linearGradient id="trunk" x1="0" x2="0" y1="0" y2="1">
      <stop offset="0" stop-color="#d4a373"/>
      <stop offset="1" stop-color="#8b5e34"/>
    </linearGradient>
  </defs>
  <rect x="28" y="24" width="8" height="30" rx="2" fill="url(#trunk)"/>
  <path d="M32 24c-10-9-20-8-26-4 5-1 14 0 20 7z" fill="#22c55e"/>
  <path d="M32 24c10-9 20-8 26-4-5-1-14 0-20 7z" fill="#16a34a"/>
  <path d="M32 24c-9-3-16-10-17-17 6 5 13 8 19 14z" fill="#4ade80"/>
  <path d="M32 24c9-3 16-10 17-17-6 5-13 8-19 14z" fill="#22c55e"/>
  <ellipse cx="32" cy="56" rx="14" ry="4" fill="#0f172a" opacity="0.3"/>
</svg>
